<?xml version="1.0" encoding="UTF-8"?>
<svg id="Layer_2" data-name="Layer 2" xmlns="http://www.w3.org/2000/svg" viewBox="0 0 200 200">
  <defs>
    <style>
      .cls-1 {
        fill: #117df8;
      }

      .cls-1, .cls-2 {
        stroke-width: 0px;
      }

      .cls-2 {
        fill: #fff;
      }
    </style>
  </defs>
  <g id="Layer_1-2" data-name="Layer 1">
    <circle class="cls-1" cx="100" cy="100" r="100"/>
    <g>
      <path class="cls-2" d="m168.16,143.78c3.13-3.14,3.13-8.22,0-11.35-3.14-3.14-8.22-3.14-11.35,0-3.13,3.14-3.13,8.22,0,11.35,3.13,3.13,8.22,3.13,11.35,0Z"/>
      <path class="cls-2" d="m128.72,46.88c-13.08,0-18.76,10.84-36.16,10.84-15.72,0-21.38-7.39-28.65-7.39s-12.56,5.94-12.56,12.56c0,7.69,6.22,12.56,12.56,12.56,8.19,0,10.46-7.41,28.65-7.41,16.66,0,24.73,10.86,36.1,10.86,9.25,0,16.2-7.17,16.2-16.02s-7.11-16.01-16.15-16.01Z"/>
      <path class="cls-2" d="m128.65,121.09c-11.35,0-13.3,11.51-31.97,11.51-5.34,0-13.64-.85-15.78-5.41-2.27-4.84,2.7-10.25,6.74-14.28,8.02-8.02,18.45-6.27,23.78-11.6,2.12-2.12,3.14-4.83,3.14-7.54,0-5.87-4.76-10.62-10.62-10.62-2.65,0-5.45,1.05-7.38,2.99-6.45,6.45-3.53,13.64-13.14,23.24-8.7,8.7-20.39,10.59-26,13.08s-9.53,8.1-9.53,14.64c0,8.85,7.17,16.02,16.02,16.02,9.56,0,18.26-8.19,32.91-8.19,13.76,0,23.65,8.19,32.03,8.19,8.85,0,16.02-7.17,16.02-16.02s-6.99-16.01-16.22-16.01Z"/>
    </g>
  </g>
</svg>