<?xml version="1.0" encoding="UTF-8"?>
<svg id="Layer_2" data-name="Layer 2" xmlns="http://www.w3.org/2000/svg" viewBox="0 0 550.65 200">
  <defs>
    <style>
      .cls-1 {
        fill: #252929;
      }

      .cls-1, .cls-2, .cls-3 {
        stroke-width: 0px;
      }

      .cls-2 {
        fill: #117df8;
      }

      .cls-3 {
        fill: #fff;
      }
    </style>
  </defs>
  <g id="Layer_1-2" data-name="Layer 1">
    <g>
      <g>
        <path class="cls-1" d="m312.49,77.05c1.84-2.23,2.85-5.03,2.85-7.93v-7.05h-64.69v14.5h41.3l-38.91,46.91c-2.11,2.55-3.27,5.75-3.27,9.07v6.41h67.22v-14.5h-43.71l39.21-47.4Z"/>
        <path class="cls-1" d="m495.98,78.78c-17.02,0-30.82,13.8-30.82,30.82v47.57h14.03v-21.73c4.83,3.14,10.59,4.98,16.78,4.98,17.02,0,30.82-13.8,30.82-30.82s-13.8-30.82-30.82-30.82Zm0,48.23c-9.61,0-17.41-7.79-17.41-17.41s7.79-17.41,17.41-17.41,17.41,7.79,17.41,17.41-7.79,17.41-17.41,17.41Z"/>
        <path class="cls-1" d="m425.33,78.78c-17.02,0-30.82,13.8-30.82,30.82v47.57h14.03v-21.73c4.83,3.14,10.59,4.98,16.78,4.98,17.02,0,30.82-13.8,30.82-30.82s-13.8-30.82-30.82-30.82Zm0,48.23c-9.61,0-17.41-7.79-17.41-17.41s7.79-17.41,17.41-17.41,17.41,7.79,17.41,17.41-7.79,17.41-17.41,17.41Z"/>
        <path class="cls-1" d="m353.61,78.78c-17.02,0-30.82,13.8-30.82,30.82s13.8,30.82,30.82,30.82c6.19,0,11.95-1.83,16.78-4.98v3.52h14.03v-29.36c0-17.02-13.8-30.82-30.82-30.82Zm0,48.23c-9.61,0-17.41-7.79-17.41-17.41s7.79-17.41,17.41-17.41,17.41,7.79,17.41,17.41-7.79,17.41-17.41,17.41Z"/>
        <rect class="cls-1" x="536.6" y="62.1" width="14.05" height="76.86"/>
      </g>
      <circle class="cls-2" cx="100" cy="100" r="100"/>
      <g>
        <path class="cls-3" d="m168.16,143.78c3.13-3.14,3.13-8.22,0-11.35-3.14-3.14-8.22-3.14-11.35,0-3.13,3.14-3.13,8.22,0,11.35,3.13,3.13,8.22,3.13,11.35,0Z"/>
        <path class="cls-3" d="m128.72,46.88c-13.08,0-18.76,10.84-36.16,10.84-15.72,0-21.38-7.39-28.65-7.39s-12.56,5.94-12.56,12.56c0,7.69,6.22,12.56,12.56,12.56,8.19,0,10.46-7.41,28.65-7.41,16.66,0,24.73,10.86,36.1,10.86,9.25,0,16.2-7.17,16.2-16.02s-7.11-16.01-16.15-16.01Z"/>
        <path class="cls-3" d="m128.65,121.09c-11.35,0-13.3,11.51-31.97,11.51-5.34,0-13.64-.85-15.78-5.41-2.27-4.84,2.7-10.25,6.74-14.28,8.02-8.02,18.45-6.27,23.78-11.6,2.12-2.12,3.14-4.83,3.14-7.54,0-5.87-4.76-10.62-10.62-10.62-2.65,0-5.45,1.05-7.38,2.99-6.45,6.45-3.53,13.64-13.14,23.24-8.7,8.7-20.39,10.59-26,13.08s-9.53,8.1-9.53,14.64c0,8.85,7.17,16.02,16.02,16.02,9.56,0,18.26-8.19,32.91-8.19,13.76,0,23.65,8.19,32.03,8.19,8.85,0,16.02-7.17,16.02-16.02s-6.99-16.01-16.22-16.01Z"/>
      </g>
    </g>
  </g>
</svg>